<svg xmlns="http://www.w3.org/2000/svg" xmlns:xlink="http://www.w3.org/1999/xlink" version="1.1" x="0px" y="0px" viewBox="0 0 68 85" style="enable-background:new 0 0 68 68;" xml:space="preserve"><g><path d="M70.3903427,53.2526093l-4.3100586-4.0800781l3.6799316-3.7299805   c0.615509-0.6375084,0.1758194-1.7001953-0.7199707-1.7001953h-3.6999512l1.1099854-5.1098633   c0.178154-0.8692818-0.7422409-1.5009804-1.4801025-1.0800781l-5.6298828,3.2299805   c-4.7437592,2.7238312-9.4159889,2.3334999-9.7299805,2.3701172c4.8898926-3.6899414,5.5499268-8.1401367,5.6098633-9.8701172   c5.6900635-2.989748,5.3901367-9.3598652,5.130127-11.4199238c3.8299561-3.0400391,3.7399902-7.3701162,3.1298828-9.2998037   c-0.2168961-0.6734962-0.9864044-0.8966436-1.5299072-0.5200195c-2.6773682,1.8710938-6.3294678,3.1782227-9.5716553,4.0541983   c-0.1427002-0.5644522-0.3127441-1.0898428-0.498291-1.5444326c2.8299561-3.6401367,1.789917-7.6000981,0.7999268-9.2397461   c-0.3584099-0.5907469-1.179245-0.6422362-1.6099854-0.1503906c-2.6799316,3.0302739-7.1199951,5.5302739-10.3699951,7.1000981   c-4.8299561,2.340332-8.2600098,6.5703115-9.4100342,11.6201162c-0.3399658,1.5-0.5999756,3.0600586-0.7900391,4.6000977   c-2.8295307-2.1624737-5.2085838-3.912674-8.6899414-3.0200195c-4.0087891,1.0219727-5.1831055,4.3476563-5.5223389,6.3007813   l-4.4073477,4.9936543L7.1602407,34.392746c-1.6701946-0.8352776-3.5894344-0.0632744-4.3599854,1.4399414   c-7.0623417,14.1049232-4.6265821,9.2400932-5.1535645,10.2924805c-0.8021483,1.6002541-0.150368,3.5492744,1.451172,4.3515625   l16.9956055,8.5214844c1.5943737,0.797184,3.5454655,0.1564713,4.3486328-1.4443359l2.6376953-5.2612305   c0.7045898,0.8295898,1.4752197,1.5844727,2.3504639,2.2197266c6.9699707,5.0703125,17.3900146,2.3598633,21.5499268,0.9501953   c1.630127-0.5400391,3.3500977-0.5297852,4.8400879,0.0498047c5.4099121,2.0800781,12.0100098,7.3803711,12.0700684,7.4301758   c0.756012,0.5966454,1.7721634-0.058754,1.619873-0.9501953l-1.0699463-5.8095703l5.4799805-1.2304688   C70.6671295,54.7861748,70.9766541,53.8386421,70.3903427,53.2526093z M58.6902695,20.5924511   c-0.3299561,0.2402344-0.4899902,0.6401367-0.4000244,1.0400391c0.0200195,0.0698242,1.5500488,7.3901367-4.4899902,10.1201172   c-0.3900146,0.1801758-0.6300049,0.5898457-0.5800781,1.0200214c0.4718628,3.7748833-2.8684883,9.6216698-12.2698975,12.2998047   c-0.7668724,0.220047-4.090889,1.1187706-4.8399658,0.8203125c-0.7936325-0.4860802-2.9723625-0.6890717-2.6201172-2.3500977   c1.105011-5.2466087,2.8701401-11.4561157,5.25-16.2402363c2.1501465-4.3598633,6.2200928-7.4697266,11.1600342-8.5400391   c3.4901123-0.7597656,8.2000732-2.0898438,11.8800049-4.2397451   C61.8503036,16.0724316,61.4701767,18.6525097,58.6902695,20.5924511z M6.2602162,36.182785   c24.1989727,12.1269569-7.1901522-3.6035728,17.0002441,8.5200195c0.0114746,0.0058594,0.0185547,0.0166016,0.0299072,0.0229492   c0.4575806,0.2473869,0.7253227,0.760025,0.6065674,1.3286133c-0.1039619,0.0087624-11.7073936,0.9865532-11.6066885,0.9780273   c-0.5300293,0.050293-1.0500488-0.2099609-1.3399658-0.6699219l-6.1573491-9.8798828   C5.2213187,36.0040283,5.8242741,35.9637909,6.2602162,36.182785z M14.4234247,38.0304413   c1.5533447-0.4658203,2.968627-0.6254883,4.2745352-0.4833984c0.0065918,0.9189453,0.0321045,1.8168945,0.1022949,2.675293   L14.4234247,38.0304413z M46.3402939,53.5724335c-3.8701172,1.2998047-13.5200195,3.8398438-19.7399902-0.6699219   c-0.967041-0.7026367-1.8037109-1.5751953-2.5354004-2.5742188c0.0525665-0.1046143,1.6318016-3.2475166,1.5354004-3.0556641   c0-0.0078125,0-0.0073242,0-0.0078125c0.3561726-0.7092476,0.4750881-1.7345695,0.1398926-2.5820313   c-0.6682682-1.8395615-2.3252907-1.9614906-4.5297852-3.2451172l-0.3103027-0.1557617   c-0.1298828-1.1367188-0.1845703-2.3500977-0.1958008-3.6113281c0.0065918-0.003418,0.0145264-0.003418,0.0209961-0.0073242   c0.234375-0.1416016,0.4003906-0.3735352,0.4589844-0.6416016c0.3759766-1.7114258,0.1838379-4.0834961-2.7033691-5.8667011   c0.4521484-1.4902344,1.4870605-3.1611328,3.8293457-3.7524414c2.766346-0.71105,4.8955078,0.9780369,7.9399414,3.4399414   c1.5495586,1.2494068,2.4793396,2.1070461,3.6467285,3.2802753c-1.1381836,3.5366211-1.9172363,6.8417969-2.3666992,9.0097656   c-0.7350502,3.5417328,3.3414917,4.2658653,3.8000488,4.6000977c2.2196159,0.9276733,8.8627701-1.5161285,11-2.5800781   c2.6568108-0.1969032,7.3781204,0.8036079,13.239502-2.2304688c-1.3748779,5.1884766-1.5559082,10.0058594-0.1921387,14.34375   c-2.1156006-1.355957-4.5465088-2.7382813-6.8374023-3.6230469C50.548584,52.8851738,48.3826141,52.8783607,46.3402939,53.5724335z   "/><circle cx="24.1330185" cy="31.6959667" r="1.6875"/></g><text x="0" y="83" fill="#000000" font-size="5px" font-weight="bold" font-family="'Helvetica Neue', Helvetica, Arial-Unicode, Arial, Sans-serif">Created by Brickclay</text><text x="0" y="88" fill="#000000" font-size="5px" font-weight="bold" font-family="'Helvetica Neue', Helvetica, Arial-Unicode, Arial, Sans-serif">from the Noun Project</text></svg>